<?xml version="1.0" encoding="UTF-8"?>
<svg width="22px" height="29px" viewBox="0 0 22 29" version="1.1" xmlns="http://www.w3.org/2000/svg" xmlns:xlink="http://www.w3.org/1999/xlink">
    <title>71BA68CF-8329-4CBE-9622-29F125ACED02</title>
    <g id="Page-1" stroke="none" stroke-width="1" fill="none" fill-rule="evenodd">
        <g id="NewDemo_1" transform="translate(-370.000000, -1292.000000)" fill="#003187">
            <g id="Group-27" transform="translate(130.000000, 980.000000)">
                <g id="Group-19-Copy" transform="translate(194.000000, 312.000000)">
                    <g id="Group-18" transform="translate(46.000000, 0.000000)">
                        <path d="M11.0000507,0 C8.60021209,0 6.64778624,2.23593513 6.64778624,4.9843018 L6.64778624,7.24989353 L3.68893358,7.24989353 C2.67939147,7.24989353 1.76603441,7.83344199 1.64870652,8.8325906 L0.0172716323,27.1903179 C-0.0517466598,27.6506513 0.0881706188,28.1176457 0.399621861,28.4664677 C0.711073103,28.8152897 1.16230392,29.0103747 1.63269477,28.9995741 L20.3674067,28.9995741 C20.837787,29.0103695 21.2890042,28.8152781 21.6004359,28.4664532 C21.9118677,28.1176283 22.0517598,27.6506368 21.9827153,27.1903179 L20.3512804,8.8325906 C20.234067,7.83344199 19.32071,7.24989353 18.3111679,7.24989353 L15.3523152,7.24989353 L15.3523152,4.9843018 C15.3523152,2.23593513 13.3998894,0 11.0000507,0 Z M7.56405245,4.9843018 C7.56405245,2.73563404 9.10544128,0.906236691 11.0000507,0.906236691 C12.8947747,0.906236691 14.436049,2.73563404 14.436049,4.9843018 L14.436049,7.24989353 L7.56405245,7.24989353 L7.56405245,4.9843018 Z M10.5419176,13.8201095 L10.5419176,15.1794646 C10.5419176,15.4297149 10.3368044,15.6325829 10.0837845,15.6325829 C9.83076459,15.6325829 9.62565142,15.4297149 9.62565142,15.1794646 L9.62565142,13.8201095 C9.62565142,13.5698592 9.83076459,13.3669912 10.0837845,13.3669912 C10.3368044,13.3669912 10.5419176,13.5698592 10.5419176,13.8201095 Z M7.18119061,17.8919896 L5.8067913,18.1185488 C5.64535027,18.1451462 5.48182599,18.0845383 5.37781646,17.9595554 C5.27380694,17.8345725 5.24511369,17.6642025 5.30254519,17.5126221 C5.35997669,17.3610418 5.49480773,17.2512797 5.65624876,17.2246822 L7.03064807,16.998123 C7.28021427,16.9570069 7.51622772,17.1237745 7.5577989,17.370609 C7.59937007,17.6174434 7.4307568,17.8508734 7.18119061,17.8919896 L7.18119061,17.8919896 Z M7.88797546,15.7264011 C7.80207734,15.811392 7.6855544,15.8591423 7.56405245,15.8591423 C7.44255049,15.8591423 7.32602755,15.811392 7.24012944,15.7264011 L5.86573012,14.367046 C5.68706915,14.1900664 5.68718155,13.9033823 5.86598125,13.7265398 C6.04478094,13.5496972 6.33463784,13.5495861 6.51357615,13.7262914 L7.88797546,15.0856464 C7.97390704,15.1706043 8.02218572,15.2858518 8.02218572,15.4060237 C8.02218572,15.5261957 7.97390704,15.6414432 7.88797546,15.7264011 L7.88797546,15.7264011 Z M7.793119,10.4217219 L6.41871969,10.4217219 C6.16569976,10.4217219 5.96058658,10.218854 5.96058658,9.9686036 C5.96058658,9.71835325 6.16569976,9.51548526 6.41871969,9.51548526 L7.793119,9.51548526 C8.04613893,9.51548526 8.2512521,9.71835325 8.2512521,9.9686036 C8.2512521,10.218854 8.04613893,10.4217219 7.793119,10.4217219 Z M16.4971898,21.6224676 C16.5028593,21.7474537 16.4559783,21.8691876 16.3676756,21.958772 L14.9219221,23.4253122 C14.7531145,23.5965507 14.4788378,23.60861 14.2953334,23.4528618 L11.7178995,21.2641416 L11.101825,22.7131008 C11.0279667,22.8867272 10.8532126,22.9970585 10.6628855,22.990226 C10.4725583,22.9833935 10.3063512,22.8608221 10.2454139,22.6823567 L8.27530409,16.910286 C8.22277468,16.7563922 8.25755702,16.5864613 8.36646951,16.4648928 C8.475382,16.3433242 8.64175846,16.2887209 8.80254657,16.3217759 L15.172246,17.6310161 C15.3652063,17.6706819 15.5108883,17.8279684 15.5339697,18.0215536 C15.5570512,18.2151388 15.4523582,18.401628 15.2740203,18.4846004 L13.8204327,19.1609475 L16.3379199,21.2986692 C16.4339496,21.3802112 16.4915974,21.4974099 16.4971898,21.6224676 Z M15.5813818,9.51548526 C15.8344017,9.51548526 16.0395149,9.71835325 16.0395149,9.9686036 C16.0395149,10.218854 15.8344017,10.4217219 15.5813818,10.4217219 L14.2069825,10.4217219 C13.9539625,10.4217219 13.7488494,10.218854 13.7488494,9.9686036 C13.7488494,9.71835325 13.9539625,9.51548526 14.2069825,9.51548526 L15.5813818,9.51548526 Z" id="Shape" fill-rule="nonzero"></path>
                        <polygon id="Path-2" points="2.5 22.5 3.04792556 12.8370649 10.0837845 11.7192302 16.0395149 13.3669912 19.3099329 21.4917296 17.6082939 25.6102456 3.62602657 25.6102456"></polygon>
                    </g>
                </g>
            </g>
        </g>
    </g>
</svg>