<svg xmlns="http://www.w3.org/2000/svg" xmlns:xlink="http://www.w3.org/1999/xlink" width="84" height="84" viewBox="0 0 84 84">
  <defs>
    <clipPath id="clip-path">
      <rect id="Rectangle_2749" data-name="Rectangle 2749" width="84" height="84" transform="translate(-0.053 -0.054)" fill="#ffcd00"/>
    </clipPath>
  </defs>
  <g id="_6D_add" data-name="6D_add" transform="translate(0.053 0.054)">
    <g id="Group_656" data-name="Group 656" transform="translate(0 0)" clip-path="url(#clip-path)">
      <path id="Path_1607" data-name="Path 1607" d="M42.016,0A42.016,42.016,0,1,0,84.032,42.016,42.018,42.018,0,0,0,42.016,0m0,78.78A36.764,36.764,0,1,1,78.78,42.016,36.764,36.764,0,0,1,42.016,78.78" transform="translate(-0.198 -0.661)" fill="#ffcd00"/>
      <path id="Path_1608" data-name="Path 1608" d="M45.39,24.382H29.634V8.626a2.626,2.626,0,1,0-5.252,0V24.382H8.626a2.626,2.626,0,1,0,0,5.252H24.382V45.39a2.626,2.626,0,0,0,5.252,0V29.634H45.39a2.626,2.626,0,0,0,0-5.252" transform="translate(14.81 14.872)" fill="#ffcd00"/>
    </g>
  </g>
</svg>
