<?xml version="1.0" encoding="UTF-8"?>
<svg width="44px" height="44px" viewBox="0 0 44 44" version="1.1" xmlns="http://www.w3.org/2000/svg" xmlns:xlink="http://www.w3.org/1999/xlink">
    <title>51BF6E46-540B-43D8-9747-1CFF3F88643C</title>
    <g id="Page-1" stroke="none" stroke-width="1" fill="none" fill-rule="evenodd">
        <g id="Icons" transform="translate(-64.000000, -78.000000)" fill-rule="nonzero">
            <g id="fb" transform="translate(64.000000, 78.000000)">
                <path d="M44.0002,22.0001036 C44.0002,34.1495302 34.1509119,43.9996 22.0002,43.9996 C9.8494881,43.9996 0.0002,34.1495302 0.0002,22.0001036 C0.0002,9.85067698 9.8494881,-0.0004 22.0002,-0.0004 C34.1509119,-0.0004 44.0002,9.85067698 44.0002,22.0001036" id="Fill-1" fill="#DBDAD0"></path>
                <path d="M19.0607,32.5682 L23.4927,32.5682 L23.4927,21.8412 L26.4487,21.8412 L26.8397,18.1462 L23.4927,18.1462 L23.4977,16.2962 C23.4977,15.3332 23.5887,14.8152 24.9717,14.8152 L26.8197,14.8152 L26.8197,11.1192 L23.8617,11.1192 C20.3097,11.1192 19.0607,12.9122 19.0607,15.9272 L19.0607,18.1462 L16.8467,18.1462 L16.8467,21.8432 L19.0607,21.8432 L19.0607,32.5682 Z" id="Fill-4" fill="#000000"></path>
            </g>
        </g>
    </g>
</svg>