<?xml version="1.0" encoding="UTF-8"?>
<svg width="26px" height="29px" viewBox="0 0 26 29" version="1.1" xmlns="http://www.w3.org/2000/svg" xmlns:xlink="http://www.w3.org/1999/xlink">
    <title>D4AF6AB3-5862-4DAF-9F24-B42392599E93</title>
    <g id="Page-1" stroke="none" stroke-width="1" fill="none" fill-rule="evenodd">
        <g id="updated_1" transform="translate(-287.000000, -1402.000000)" fill="#B3B3B3" fill-rule="nonzero">
            <g id="Group-27" transform="translate(93.000000, 1090.000000)">
                <g id="noun_Present_71331" transform="translate(194.000000, 312.000000)">
                    <path d="M24.597601,6.52560026 L22.8840009,6.52560026 C23.5920009,5.80080023 23.997601,4.87800019 23.997601,4.12560016 C23.997601,2.76600011 22.9104009,1.17600005 19.8480008,1.17600005 C17.8260007,1.17600005 15.5244006,2.5488001 13.7724005,4.22640017 C14.3472006,3.16920013 15.2652006,1.95840008 16.1232006,1.09920004 C16.3560006,0.865200034 16.3560006,0.484800019 16.1232006,0.25080001 C15.8892006,0.0168000007 15.5076006,0.0168000007 15.2748006,0.25080001 C14.3880006,1.13880005 13.2732005,2.5692001 12.6000005,3.90840016 C11.9256005,2.5692001 10.8120004,1.13760005 9.92520039,0.25080001 C9.69120039,0.0168000007 9.31080037,0.0168000007 9.07680036,0.25080001 C8.84280035,0.484800019 8.84280035,0.865200034 9.07680036,1.09920004 C9.93480039,1.95840008 10.8516004,3.16920013 11.4264005,4.22640017 C9.67200038,2.5488001 7.37160029,1.17480005 5.34960021,1.17480005 C2.28600009,1.17480005 1.20000005,2.76600011 1.20000005,4.12560016 C1.20000005,4.87800019 1.60320006,5.80080023 2.31360009,6.52560026 L0.600000024,6.52560026 C0.268800011,6.52560026 0,6.79440027 0,7.12560028 L0,11.9256005 C0,12.2568005 0.268800011,12.5256005 0.600000024,12.5256005 L24.600001,12.5256005 C24.930001,12.5256005 25.200001,12.2568005 25.200001,11.9256005 L25.200001,7.12560028 C25.197601,6.79440027 24.927601,6.52560026 24.597601,6.52560026 Z M5.0976002,6.52560026 C3.42240014,6.52560026 2.3976001,4.9728002 2.3976001,4.12560016 C2.3976001,3.03000012 3.50040014,2.37600009 5.34720021,2.37600009 C7.5156003,2.37600009 10.2888004,4.43880018 11.8752005,6.52560026 L5.0976002,6.52560026 Z M20.0976008,6.52560026 L13.3200005,6.52560026 C14.9064006,4.43760018 17.6796007,2.37600009 19.8468008,2.37600009 C21.6948009,2.37600009 22.796402,3.03000012 22.796402,4.12560016 C22.7976009,4.9728002 21.7740009,6.52560026 20.0976008,6.52560026 Z" id="Shape"></path>
                    <path d="M11.9976005,13.7256005 L1.19760005,13.7256005 L1.19760005,27.5256011 C1.19760005,27.8556011 1.46640006,28.1256011 1.79760007,28.1256011 L11.9976005,28.1256011 L11.9976005,13.7256005 Z" id="Path"></path>
                    <path d="M13.1976005,13.7256005 L13.1976005,28.1256011 L23.3976009,28.1256011 C23.7276009,28.1256011 23.997601,27.8556011 23.997601,27.5256011 L23.997601,13.7256005 L13.1976005,13.7256005 L13.1976005,13.7256005 Z" id="Path"></path>
                </g>
            </g>
        </g>
    </g>
</svg>