<?xml version="1.0" encoding="UTF-8"?>
<svg width="17px" height="16px" viewBox="0 0 17 16" version="1.1" xmlns="http://www.w3.org/2000/svg" xmlns:xlink="http://www.w3.org/1999/xlink">
    <title>noun_History_2186760@1.5x</title>
    <g id="Sprint-5" stroke="none" stroke-width="1" fill="none" fill-rule="evenodd">
        <g id="Artboard" transform="translate(-28.000000, -165.000000)" fill="#221E20" fill-rule="nonzero">
            <g id="noun_History_2186760" transform="translate(28.000000, 165.500000)">
                <g id="Group" transform="translate(-0.000000, 0.000000)">
                    <path d="M15.8333333,3.33333333 L12.5,3.33333333 C12.0397627,3.33333333 11.6666667,3.70642938 11.6666667,4.16666667 C11.6666667,4.62690396 12.0397627,5 12.5,5 L15.8333333,5 C16.2935706,5 16.6666667,4.62690396 16.6666667,4.16666667 C16.6666667,3.70642938 16.2935706,3.33333333 15.8333333,3.33333333 Z" id="Path"></path>
                    <path d="M0.833333333,1.66666667 L15.8333333,1.66666667 C16.2935706,1.66666667 16.6666667,1.29357062 16.6666667,0.833333333 C16.6666667,0.373096042 16.2935706,0 15.8333333,0 L0.833333333,0 C0.373096042,0 0,0.373096042 0,0.833333333 C0,1.29357062 0.373096042,1.66666667 0.833333333,1.66666667 Z" id="Path"></path>
                    <path d="M15.8333333,6.66666667 L14.1666667,6.66666667 C13.7064294,6.66666667 13.3333333,7.03976271 13.3333333,7.5 C13.3333333,7.96023729 13.7064294,8.33333333 14.1666667,8.33333333 L15.8333333,8.33333333 C16.2935706,8.33333333 16.6666667,7.96023729 16.6666667,7.5 C16.6666667,7.03976271 16.2935706,6.66666667 15.8333333,6.66666667 Z" id="Path"></path>
                    <path d="M15.8333333,10 L14.1666667,10 C13.7064294,10 13.3333333,10.373096 13.3333333,10.8333333 C13.3333333,11.2935706 13.7064294,11.6666667 14.1666667,11.6666667 L15.8333333,11.6666667 C16.2935706,11.6666667 16.6666667,11.2935706 16.6666667,10.8333333 C16.6666667,10.373096 16.2935706,10 15.8333333,10 Z" id="Path"></path>
                    <path d="M15.8333333,13.3333333 L12.5,13.3333333 C12.0397627,13.3333333 11.6666667,13.7064294 11.6666667,14.1666667 C11.6666667,14.626904 12.0397627,15 12.5,15 L15.8333333,15 C16.2935706,15 16.6666667,14.626904 16.6666667,14.1666667 C16.6666667,13.7064294 16.2935706,13.3333333 15.8333333,13.3333333 Z" id="Path"></path>
                    <path d="M5.83333333,3.33333333 C2.61167229,3.33333333 -7.40148683e-16,5.94500563 -7.40148683e-16,9.16666667 C-7.40148683e-16,12.3883277 2.61167229,15 5.83333333,15 C9.05499437,15 11.6666667,12.3883277 11.6666667,9.16666667 C11.6666667,7.61957048 11.0520851,6.13583932 9.95812289,5.04187711 C8.86416068,3.9479149 7.38042952,3.33333333 5.83333333,3.33333333 Z M6.66668061,9.16666667 C6.6679473,9.38816915 6.58098876,9.60106764 6.425,9.75833333 L4.75833333,11.425 C4.42769977,11.7081473 3.93483819,11.6891102 3.62703065,11.3813027 C3.31922311,11.0734951 3.300186,10.5806336 3.58333333,10.25 L5,8.825 L5,5.83333333 C5,5.37309604 5.37309604,5 5.83333333,5 C6.29357062,5 6.66668061,5.37309604 6.66668061,5.83333333 L6.66668061,9.16666667 Z" id="Shape"></path>
                </g>
            </g>
        </g>
    </g>
</svg>