<?xml version="1.0" encoding="UTF-8"?>
<svg width="44px" height="44px" viewBox="0 0 44 44" version="1.1" xmlns="http://www.w3.org/2000/svg" xmlns:xlink="http://www.w3.org/1999/xlink">
    <title>32636A10-5DE5-4531-AF09-7A448464C531</title>
    <g id="Page-1" stroke="none" stroke-width="1" fill="none" fill-rule="evenodd">
        <g id="Icons" transform="translate(-346.000000, -119.000000)" fill-rule="nonzero">
            <g id="instagram" transform="translate(346.000000, 119.000000)">
                <path d="M44,22 C44,34.1507119 34.1509373,44 21.9994964,44 C9.85006981,44 0,34.1507119 0,22 C0,9.85029529 9.85006981,0 21.9994964,0 C34.1509373,0 44,9.85029529 44,22" id="Fill-1" fill="#DBDAD0"></path>
                <path d="M29.024,17.473 C29.024,17.809 28.752,18.081 28.416,18.081 L25.984,18.081 C25.648,18.081 25.376,17.809 25.376,17.473 L25.376,15.041 C25.376,14.704 25.648,14.432 25.984,14.432 L28.416,14.432 C28.752,14.432 29.024,14.704 29.024,15.041 L29.024,17.473 Z M29.024,28.417 C29.024,28.843 28.842,29.025 28.416,29.025 L15.041,29.025 C14.615,29.025 14.432,28.843 14.432,28.417 L14.432,19.905 L15.947,20.235 C15.785,20.764 15.697,21.323 15.697,21.903 C15.697,25.137 18.405,27.762 21.742,27.762 C25.081,27.762 27.788,25.138 27.788,21.903 C27.788,21.323 27.699,20.764 27.537,20.235 L29.023,19.905 L29.023,28.417 L29.024,28.417 Z M21.743,17.907 C23.9,17.907 25.649,19.601 25.649,21.691 C25.649,23.781 23.9,25.476 21.743,25.476 C19.586,25.476 17.837,23.78 17.837,21.691 C17.837,19.601 19.586,17.907 21.743,17.907 Z M29.024,12 L14.432,12 C13.058,12 12,13.059 12,14.432 L12,29.023 C12,30.397 13.058,31.456 14.432,31.456 L29.023,31.456 C30.396,31.456 31.4560007,30.397 31.4560007,29.023 L31.4560007,14.432 C31.457,13.059 30.396,12 29.024,12 Z" id="Fill-4" fill="#000000"></path>
            </g>
        </g>
    </g>
</svg>