<?xml version="1.0" encoding="UTF-8"?>
<svg width="44px" height="44px" viewBox="0 0 44 44" version="1.1" xmlns="http://www.w3.org/2000/svg" xmlns:xlink="http://www.w3.org/1999/xlink">
    <title>900C328F-BA71-4327-BA3B-2CFDF6D6349F</title>
    <g id="Page-1" stroke="none" stroke-width="1" fill="none" fill-rule="evenodd">
        <g id="Icons" transform="translate(-420.000000, -119.000000)" fill-rule="nonzero">
            <g id="link" transform="translate(420.000000, 119.000000)">
                <path d="M44,22 C44,34.1507119 34.1509373,44 22.0005036,44 C9.85006981,44 0,34.1507119 0,22 C0,9.85029529 9.85006981,0 22.0005036,0 C34.1509373,0 44,9.85029529 44,22" id="Fill-26" fill="#DBDAD0"></path>
                <path d="M27.2521,17.9736066 C28.1881,17.9836066 29.0761,18.1756066 29.8841,18.6706066 C30.7091,19.1766066 31.2771,19.8996066 31.6531,20.7796066 C31.9581,21.4936066 32.1081,22.2446066 32.1701,23.0156066 C32.1771,23.1006066 32.1941,23.1836066 32.2061,23.2676066 L32.2061,31.3186066 C32.0221,31.3146066 31.8391,31.3066066 31.6551,31.3066066 L27.8721,31.3066066 L27.8721,31.0486066 C27.8691,28.7206066 27.8701,26.3926066 27.8601,24.0646066 C27.8581,23.5436066 27.7721,23.0306066 27.5551,22.5486066 C27.1911,21.7416066 26.5401,21.3816066 25.6831,21.3916066 C24.6101,21.4036066 23.7181,22.0736066 23.4291,23.0996066 C23.3331,23.4416066 23.3241,23.8146066 23.3231,24.1726066 C23.3141,26.4626066 23.3181,28.7516066 23.3181,31.0406066 L23.3181,31.2906066 L19.0001,31.2906066 L19.0001,18.2886066 L23.3101,18.2886066 L23.3101,20.0996066 C23.3811,20.0116066 23.4181,19.9726066 23.4471,19.9286066 C24.3601,18.5866066 25.6391,17.9566066 27.2521,17.9736066 Z M16.5705,18.2877066 L16.5705,31.2947066 L12.2755,31.2947066 L12.2755,18.2877066 L16.5705,18.2877066 Z M14.535,12.0009066 C15.277,12.0159066 15.93,12.2579066 16.4,12.8629066 C17.302,14.0169066 16.947,16.0559066 15.023,16.4339066 C14.22,16.5929066 13.449,16.4919066 12.786,15.9559066 C12.372,15.6209066 12.13,15.1779066 12.037,14.6539066 C12.03,14.6169066 12.013,14.5819066 12,14.5459066 L12,13.9539066 C12.088,13.5899066 12.185,13.2309066 12.419,12.9269066 C12.955,12.2309066 13.691,11.9829066 14.535,12.0009066 Z" id="Combined-Shape" fill="#000000"></path>
            </g>
        </g>
    </g>
</svg>