<?xml version="1.0" encoding="UTF-8"?>
<svg width="16px" height="16px" viewBox="0 0 16 16" version="1.1" xmlns="http://www.w3.org/2000/svg" xmlns:xlink="http://www.w3.org/1999/xlink">
    <title>noun_logout_1350678@1.5x</title>
    <g id="Sprint-5" stroke="none" stroke-width="1" fill="none" fill-rule="evenodd">
        <g id="Artboard" transform="translate(-29.000000, -245.000000)" fill="#221E20" fill-rule="nonzero">
            <g id="noun_logout_1350678" transform="translate(29.250000, 245.500000)">
                <g id="Group">
                    <g id="Path">
                        <path d="M6.45199497,13.9325209 C6.45199497,14.3304754 6.12328426,14.6100156 5.72225161,14.546579 C5.72225161,14.546579 5.95764595,14.5929924 5.71655503,14.5454628 C2.34709091,13.8811937 -0.189549274,10.979646 -0.189549274,7.50085717 C-0.189549274,3.53131053 3.11326814,0.313357172 7.18749991,0.313357172 C11.2617317,0.313357172 14.5645491,3.53131053 14.5645491,7.50085717 C14.5645491,10.9757777 12.033547,13.8747402 8.66968173,14.5432386 C8.4250481,14.5918544 8.65206686,14.5466767 8.65206686,14.5466767 C8.24953561,14.6054308 7.92321956,14.3301555 7.92321956,13.9325022 L7.92321956,7.13817992 C7.92321956,6.87326918 8.07904234,6.81134968 8.27117641,6.99979738 L9.6069432,8.30673491 C10.3006256,8.98429047 11.3407814,7.96771752 10.6473442,7.29016196 L7.69014491,4.35865117 C7.40522218,4.07523681 6.94484574,4.07571514 6.65955659,4.3620367 L3.72762514,7.29016196 C3.03418795,7.96771752 4.07458893,8.98429047 4.76802612,8.30673491 L6.10396652,6.99979738 C6.29617733,6.8113132 6.45199497,6.8743687 6.45199497,7.13817992 L6.45199497,13.9325209 Z" transform="translate(7.187500, 7.440119) rotate(90.000000) translate(-7.187500, -7.440119) "></path>
                    </g>
                </g>
            </g>
        </g>
    </g>
</svg>