<?xml version="1.0" encoding="UTF-8"?>
<svg width="141px" height="59px" viewBox="0 0 141 59" version="1.1" xmlns="http://www.w3.org/2000/svg" xmlns:xlink="http://www.w3.org/1999/xlink">
    <title>5E0FC1A1-65E7-43D2-A991-50FF25E3F0D9</title>
    <g id="Page-1" stroke="none" stroke-width="1" fill="none" fill-rule="evenodd">
        <g id="NewDemo_1" transform="translate(-30.000000, -51.000000)" fill-rule="nonzero">
            <g id="Group-22" transform="translate(-1.000000, 0.000000)">
                <g id="Group-21" transform="translate(1.000000, 0.000000)">
                    <g id="Group-Copy" transform="translate(30.000000, 51.000000)">
                        <g id="Group-30" transform="translate(38.479567, 4.765625)" fill="#221F1F">
                            <polyline id="Path" points="3.55271368e-15 34.6814908 3.55271368e-15 0.00300538462 2.31670692 0.00300538462 17.34976 17.11839 32.4008415 0.00300538462 34.7145431 0.00300538462 34.7145431 34.6814908 27.7704331 34.6814908 27.7463946 14.5703131 17.34976 26.1268031 6.94411077 14.5703131 6.94411077 34.6814908"></polyline>
                            <path d="M47.0643031,13.8792069 L56.7698315,13.8792069 C59.5703123,13.8281254 61.0006008,12.5510823 61.0787262,10.0631015 C61.0006008,7.77644231 59.5913462,6.59254846 56.8389423,6.49939923 L47.0643031,6.49939923 L47.0643031,13.8792069 Z M40.1231969,34.6814908 L40.1231969,-1.10134124e-13 L55.2493992,-1.10134124e-13 C63.3413462,-1.10134124e-13 67.3888223,3.33233231 67.3888223,9.99098615 C67.3888223,16.8960338 63.3503608,20.3485577 55.2704331,20.3485577 L47.0643031,20.3485577 L47.0643031,34.6814908" id="Shape"></path>
                            <polyline id="Path" points="101.394231 -1.10134124e-13 101.394231 6.47536077 89.8377408 6.47536077 89.8377408 34.6814908 82.9026446 34.6814908 82.9026446 6.47536077 71.3371392 6.47536077 71.3371392 -1.10134124e-13"></polyline>
                            <polyline id="Path" points="2.13162821e-14 39.4591346 0.952523846 39.4591346 2.85156231 43.7770438 4.71153846 39.4591346 5.66105769 39.4591346 5.66105769 46.0847362 4.65444692 46.0847362 4.65444692 41.9531254 4.63641846 41.9531254 3.25120231 45.1352169 2.41286077 45.1352169 1.02463923 41.9531254 1.00661077 41.9531254 1.00661077 46.0847362 2.13162821e-14 46.0847362"></polyline>
                            <path d="M9.44711538,42.6051685 C9.30889462,42.4098562 9.01141846,42.2596154 8.68389462,42.2596154 C8.35937538,42.2596154 8.06189923,42.4098562 7.92067308,42.6051685 C7.74338923,42.8545677 7.68930308,43.0408654 7.68930308,43.7199523 C7.68930308,44.4080531 7.74338923,44.5943515 7.92067308,44.8467554 C8.06189923,45.0420677 8.35937538,45.1923077 8.68389462,45.1923077 C9.01141846,45.1923077 9.30889462,45.0420677 9.44711538,44.8467554 C9.62439923,44.5943515 9.68149077,44.4080531 9.68149077,43.7289669 C9.68149077,43.0408654 9.62439923,42.8545677 9.44711538,42.6051685 M7.25060077,41.9140631 C7.51201923,41.6256015 7.95072154,41.3100962 8.68389462,41.3100962 C9.42007231,41.3100962 9.85877385,41.6256015 10.1171877,41.9140631 C10.4807692,42.3167069 10.63101,42.7043269 10.63101,43.7199523 C10.63101,44.7445915 10.4807692,45.1352169 10.1171877,45.5348562 C9.85877385,45.8233177 9.42007231,46.1418269 8.68389462,46.1418269 C7.95072154,46.1418269 7.51201923,45.8233177 7.25060077,45.5348562 C6.88701923,45.1352169 6.73978385,44.7445915 6.73978385,43.7199523 C6.73978385,42.7043269 6.88701923,42.3167069 7.25060077,41.9140631" id="Shape"></path>
                            <polyline id="Path" points="10.9555292 41.3641831 11.9591346 41.3641831 13.0679085 44.6694715 13.0859377 44.6694715 14.1947115 41.3641831 15.2013223 41.3641831 13.4675485 46.0847362 12.6862985 46.0847362"></polyline>
                            <path d="M15.7842546,41.3671877 L17.07188,41.3671877 L17.07188,46.0847362 L15.7842546,46.0847362 L15.7842546,41.3671877 Z M15.7842546,39.4591346 L17.07188,39.4591346 L17.07188,40.4086538 L15.7842546,40.4086538 L15.7842546,39.4591346 Z" id="Shape"></path>
                            <path d="M17.9897838,41.3641831 L18.9393031,41.3641831 L18.9393031,41.8689908 L18.9573315,41.8689908 C19.2578123,41.4963946 19.6814908,41.3100962 20.1862985,41.3100962 C20.9224762,41.3100962 21.7578123,41.8780054 21.7578123,42.9477169 L21.7578123,46.0847362 L20.8112985,46.0847362 L20.8112985,43.2752408 C20.8112985,42.6322115 20.4116585,42.2596154 19.8798077,42.2596154 C19.3389423,42.2596154 18.9393031,42.6322115 18.9393031,43.2752408 L18.9393031,46.0847362 L17.9897838,46.0847362" id="Path"></path>
                            <path d="M23.9543269,44.8287262 C24.0865385,44.9969954 24.3299277,45.1923077 24.7085338,45.1923077 C25.0841346,45.1923077 25.3245192,44.9969954 25.4537262,44.8287262 C25.6219954,44.6153846 25.6400238,44.4831731 25.6400238,43.7289669 C25.6400238,42.96875 25.6219954,42.8365385 25.4537262,42.6231977 C25.3245192,42.4549285 25.0841346,42.2596154 24.7085338,42.2596154 C24.3299277,42.2596154 24.0865385,42.4549285 23.9543269,42.6231977 C23.7860577,42.8365385 23.7710338,42.96875 23.7710338,43.7289669 C23.7710338,44.4831731 23.7860577,44.6153846 23.9543269,44.8287262 M25.6400238,45.5919477 C25.3425485,45.9164669 24.9068508,46.1418269 24.4200723,46.1418269 C23.8070915,46.1418269 23.3894231,45.8353369 23.1730769,45.5649038 C22.9056492,45.2103369 22.8215146,45.0330531 22.8215146,43.7289669 C22.8215146,42.4188708 22.9056492,42.2415869 23.1730769,41.8900246 C23.3894231,41.6165869 23.8070915,41.3100962 24.4200723,41.3100962 C24.9068508,41.3100962 25.2854569,41.4963946 25.6400238,41.8689908 L25.6400238,41.3671877 L26.5895431,41.3671877 L26.5895431,45.9735577 C26.5895431,47.3978369 25.6219954,48.0468754 24.5432692,48.0468754 C23.9393031,48.0468754 23.3233177,47.7313708 22.9056492,47.2566108 L23.6418269,46.6706731 C23.8731969,46.9050485 24.1977162,47.1003608 24.5612985,47.1003608 C25.1923077,47.1003608 25.6400238,46.7367792 25.6400238,46.0757215" id="Shape"></path>
                            <polyline id="Path" points="30.3215146 39.4591346 31.2710338 39.4591346 33.1700723 43.7770438 35.0300485 39.4591346 35.9795677 39.4591346 35.9795677 46.0847362 34.9759615 46.0847362 34.9759615 41.9531254 34.9549277 41.9531254 33.5697115 45.1352169 32.73137 45.1352169 31.3461538 41.9531254 31.3281254 41.9531254 31.3281254 46.0847362 30.3215146 46.0847362"></polyline>
                            <path d="M36.6105769,41.3641831 L37.6171877,41.3641831 L38.7349762,44.6694715 L38.7530046,44.6694715 L39.8707931,41.3641831 L40.8743992,41.3641831 L38.8431492,47.0612985 C38.5847354,47.7884615 38.0919469,47.9927885 37.5150238,47.9927885 L37.1995192,47.9927885 L37.1995192,47.1003608 L37.4759615,47.1003608 C37.7193508,47.1003608 37.9507215,46.9681492 38.04387,46.6887023 L38.3052885,45.8984377" id="Path"></path>
                            <path d="M43.9002408,44.0835338 L42.7644231,44.0835338 C42.2055292,44.0835338 41.9441108,44.3088946 41.9441108,44.6514423 C41.9441108,44.9669477 42.1965146,45.2463946 42.8365385,45.2463946 C43.6268031,45.2463946 43.9002408,45.1652646 43.9002408,44.4290869 L43.9002408,44.0835338 Z M43.9002408,45.6640631 L43.8792069,45.6640631 C43.6838946,45.9915869 43.3593754,46.1388223 42.7163462,46.1388223 C41.6676685,46.1388223 41.0516831,45.5168269 41.0516831,44.6965146 C41.0516831,43.9453131 41.5715146,43.3022838 42.5871392,43.3022838 L43.9002408,43.3022838 L43.9002408,42.8064908 C43.9002408,42.3617792 43.6117792,42.2025246 42.9296877,42.2025246 C42.4368992,42.2025246 42.2055292,42.2956731 42.03726,42.5661062 L41.2920677,41.9981977 C41.6556492,41.4963946 42.1754808,41.3100962 42.8846154,41.3100962 C44.0474762,41.3100962 44.8467546,41.7007215 44.8467546,42.8665869 L44.8467546,46.0847362 L43.9002408,46.0847362" id="Shape"></path>
                            <path d="M46.0757215,41.3641831 L47.0252408,41.3641831 L47.0252408,41.8689908 L47.0432692,41.8689908 C47.3407454,41.4963946 47.7704331,41.3100962 48.2722354,41.3100962 C49.0084138,41.3100962 49.84375,41.8780054 49.84375,42.9477169 L49.84375,46.0847362 L48.8972354,46.0847362 L48.8972354,43.2752408 C48.8972354,42.6322115 48.4975962,42.2596154 47.9657454,42.2596154 C47.42488,42.2596154 47.0252408,42.6322115 47.0252408,43.2752408 L47.0252408,46.0847362 L46.0757215,46.0847362" id="Path"></path>
                            <path d="M51.1298077,41.3641831 L52.0793269,41.3641831 L52.0793269,41.8689908 L52.0973562,41.8689908 C52.3948315,41.4963946 52.8215146,41.3100962 53.3263223,41.3100962 C53.98738,41.3100962 54.3209138,41.5805292 54.6574523,41.9230769 C55.0480769,41.4963946 55.5048077,41.3100962 56.1448315,41.3100962 C56.88101,41.3100962 57.7193508,41.8780054 57.7193508,42.9477169 L57.7193508,46.0847362 L56.7698315,46.0847362 L56.7698315,43.2752408 C56.7698315,42.6322115 56.3701923,42.2596154 55.8383415,42.2596154 C55.2974762,42.2596154 54.9008415,42.6322115 54.9008415,43.2752408 L54.9008415,46.0847362 L53.9483177,46.0847362 L53.9483177,43.2752408 C53.9483177,42.6322115 53.5486777,42.2596154 53.0168269,42.2596154 C52.4789662,42.2596154 52.0793269,42.6322115 52.0793269,43.2752408 L52.0793269,46.0847362 L51.1298077,46.0847362" id="Path"></path>
                            <path d="M61.4783654,44.0835338 L60.3425485,44.0835338 C59.7836538,44.0835338 59.5222354,44.3088946 59.5222354,44.6514423 C59.5222354,44.9669477 59.7746392,45.2463946 60.4176685,45.2463946 C61.2079331,45.2463946 61.4783654,45.1652646 61.4783654,44.4290869 L61.4783654,44.0835338 Z M61.4783654,45.6640631 L61.4603369,45.6640631 C61.2620192,45.9915869 60.9375,46.1388223 60.2974762,46.1388223 C59.2427885,46.1388223 58.6298077,45.5168269 58.6298077,44.6965146 C58.6298077,43.9453131 59.1526446,43.3022838 60.1652646,43.3022838 L61.4783654,43.3022838 L61.4783654,42.8064908 C61.4783654,42.3617792 61.1899038,42.2025246 60.5108177,42.2025246 C60.0180292,42.2025246 59.7836538,42.2956731 59.6153846,42.5661062 L58.8701923,41.9981977 C59.2337738,41.4963946 59.7566108,41.3100962 60.4627408,41.3100962 C61.6256008,41.3100962 62.4278846,41.7007215 62.4278846,42.8665869 L62.4278846,46.0847362 L61.4783654,46.0847362" id="Shape"></path>
                            <path d="M63.6568508,41.3641831 L64.60637,41.3641831 L64.60637,41.8689908 L64.6213946,41.8689908 C64.9218754,41.4963946 65.3485577,41.3100962 65.8533654,41.3100962 C66.2349762,41.3100962 66.5504808,41.4483177 66.8389423,41.6736785 L66.1478369,42.4909862 C65.9254808,42.3257215 65.7692308,42.2596154 65.5258415,42.2596154 C65.0600962,42.2596154 64.60637,42.5570915 64.60637,43.2451923 L64.60637,46.0847362 L63.6568508,46.0847362" id="Path"></path>
                            <polyline id="Path" points="69.7776446 39.4591346 74.0144231 39.4591346 74.0144231 40.4086538 70.7842546 40.4086538 70.7842546 42.3617792 73.5396638 42.3617792 73.5396638 43.2542069 70.7842546 43.2542069 70.7842546 46.0847362 69.7776446 46.0847362"></polyline>
                            <path d="M77.0012023,42.6051685 C76.8599762,42.4098562 76.5655046,42.2596154 76.2379808,42.2596154 C75.9104569,42.2596154 75.6129808,42.4098562 75.47476,42.6051685 C75.2974762,42.8545677 75.2403846,43.0408654 75.2403846,43.7199523 C75.2403846,44.4080531 75.2974762,44.5943515 75.47476,44.8467554 C75.6129808,45.0420677 75.9104569,45.1923077 76.2379808,45.1923077 C76.5655046,45.1923077 76.8599762,45.0420677 77.0012023,44.8467554 C77.1784854,44.5943515 77.2325723,44.4080531 77.2325723,43.7289669 C77.2325723,43.0408654 77.1784854,42.8545677 77.0012023,42.6051685 M74.8046877,41.9140631 C75.0661062,41.6256015 75.5018031,41.3100962 76.2379808,41.3100962 C76.9711538,41.3100962 77.4068508,41.6256015 77.6712738,41.9140631 C78.0348562,42.3167069 78.1820915,42.7043269 78.1820915,43.7199523 C78.1820915,44.7445915 78.0348562,45.1352169 77.6712738,45.5348562 C77.4068508,45.8233177 76.9711538,46.1418269 76.2379808,46.1418269 C75.5018031,46.1418269 75.0661062,45.8233177 74.8046877,45.5348562 C74.4411062,45.1352169 74.2908654,44.7445915 74.2908654,43.7199523 C74.2908654,42.7043269 74.4411062,42.3167069 74.8046877,41.9140631" id="Shape"></path>
                            <path d="M79.1796877,41.3641831 L80.1262023,41.3641831 L80.1262023,41.8689908 L80.1472354,41.8689908 C80.4447115,41.4963946 80.8713946,41.3100962 81.3731969,41.3100962 C81.7578123,41.3100962 82.0733177,41.4483177 82.3617792,41.6736785 L81.6706731,42.4909862 C81.4483177,42.3257215 81.2920677,42.2596154 81.0516831,42.2596154 C80.5829331,42.2596154 80.1262023,42.5570915 80.1262023,43.2451923 L80.1262023,46.0847362 L79.1796877,46.0847362" id="Path"></path>
                            <polyline id="Path" points="85.5528846 42.7794477 85.5378608 42.7794477 84.5492792 46.0847362 83.7109377 46.0847362 82.2055292 41.3641831 83.2091346 41.3641831 84.1105769 44.6694715 84.1286062 44.6694715 85.1983177 41.3641831 85.8894231 41.3641831 86.9591346 44.6694715 86.9771638 44.6694715 87.8786062 41.3641831 88.8852162 41.3641831 87.3768031 46.0847362 86.5384615 46.0847362"></polyline>
                            <path d="M91.9921877,44.0835338 L90.8593754,44.0835338 C90.3004808,44.0835338 90.0390623,44.3088946 90.0390623,44.6514423 C90.0390623,44.9669477 90.2914662,45.2463946 90.9314908,45.2463946 C91.7217546,45.2463946 91.9921877,45.1652646 91.9921877,44.4290869 L91.9921877,44.0835338 Z M91.9921877,45.6640631 L91.9741585,45.6640631 C91.7788462,45.9915869 91.4543269,46.1388223 90.8112985,46.1388223 C89.7596154,46.1388223 89.1466346,45.5168269 89.1466346,44.6965146 C89.1466346,43.9453131 89.6664662,43.3022838 90.6820915,43.3022838 L91.9921877,43.3022838 L91.9921877,42.8064908 C91.9921877,42.3617792 91.7037262,42.2025246 91.0246392,42.2025246 C90.5318508,42.2025246 90.3004808,42.2956731 90.1322115,42.5661062 L89.3870192,41.9981977 C89.7506008,41.4963946 90.2704331,41.3100962 90.9795677,41.3100962 C92.1424277,41.3100962 92.9447115,41.7007215 92.9447115,42.8665869 L92.9447115,46.0847362 L91.9921877,46.0847362" id="Shape"></path>
                            <path d="M94.1706731,41.3641831 L95.1201923,41.3641831 L95.1201923,41.8689908 L95.1382215,41.8689908 C95.4387023,41.4963946 95.8653846,41.3100962 96.3671877,41.3100962 C96.7487985,41.3100962 97.0643031,41.4483177 97.3527646,41.6736785 L96.6646638,42.4909862 C96.4423077,42.3257215 96.2830531,42.2596154 96.0426685,42.2596154 C95.5769231,42.2596154 95.1201923,42.5570915 95.1201923,43.2451923 L95.1201923,46.0847362 L94.1706731,46.0847362" id="Path"></path>
                            <path d="M98.5727162,43.7199523 C98.5727162,44.45613 98.6207931,45.1923077 99.5162262,45.1923077 C100.399639,45.1923077 100.444712,44.4080531 100.444712,43.7199523 C100.444712,43.0408654 100.399639,42.2596154 99.5162262,42.2596154 C98.6207931,42.2596154 98.5727162,42.9927885 98.5727162,43.7199523 M100.444712,45.5919477 C100.147235,45.9164669 99.7115385,46.1418269 99.22476,46.1418269 C98.6478369,46.1418269 98.2301685,45.8804092 97.9597354,45.5258415 C97.6983177,45.1923077 97.6262023,44.8828131 97.6262023,43.7199523 C97.6262023,42.5661062 97.6983177,42.2596154 97.9597354,41.9260823 C98.2301685,41.5715146 98.6478369,41.3100962 99.22476,41.3100962 C99.7115385,41.3100962 100.090145,41.5324523 100.444712,41.8689908 L100.444712,39.4591346 L101.394231,39.4591346 L101.394231,46.0847362 L100.444712,46.0847362" id="Shape"></path>
                        </g>
                        <g id="Group-29">
                            <polyline id="Path" fill="#003187" points="33.8070908 22.11238 21.0486777 -4.26325641e-14 12.7674277 -4.26325641e-14 25.5348554 22.11238 12.7674277 44.2247592 21.0396631 44.2247592 29.3179085 58.5486777 25.1832931 37.0552885"></polyline>
                            <polyline id="Path" fill="#FFCB08" points="21.0486777 -1.0658141e-13 12.7674277 -1.0658141e-13 -7.10542736e-15 22.1093746 12.7674277 44.2247592 16.9080523 37.0552885 8.28425462 22.1093746"></polyline>
                        </g>
                    </g>
                </g>
            </g>
        </g>
    </g>
</svg>