<?xml version="1.0" encoding="UTF-8"?>
<svg width="15px" height="15px" viewBox="0 0 15 15" version="1.1" xmlns="http://www.w3.org/2000/svg" xmlns:xlink="http://www.w3.org/1999/xlink">
    <title>Group Copy@1.5x</title>
    <g id="Sprint-5" stroke="none" stroke-width="1" fill="none" fill-rule="evenodd">
        <g id="Artboard" transform="translate(-80.000000, -15.000000)" fill="#000000" fill-rule="nonzero">
            <g id="Group-Copy" transform="translate(80.937500, 15.500000)">
                <path d="M10.85,3.75609756 C10.85,1.6902439 9.1175,0 7,0 C4.8825,0 3.15,1.6902439 3.15,3.75609756 C3.15,5.82195122 4.8825,7.51219512 7,7.51219512 C9.1175,7.51219512 10.85,5.82195122 10.85,3.75609756 Z" id="Path"></path>
                <path d="M8.5225,8.29756098 C8.0325,8.45121951 7.525,8.53658537 7,8.53658537 C6.475,8.53658537 5.9675,8.45121951 5.4775,8.29756098 C3.9375,7.80243902 2.2225,8.21219512 1.2075,9.42439024 C0.455,10.3292683 0,11.4902439 0,12.7365854 C0,13.4365854 0.5775,14 1.295,14 L12.705,14 C13.4225,14 14,13.4365854 14,12.7365854 C14,11.4902439 13.545,10.3292683 12.7925,9.42439024 C11.76,8.21219512 10.0625,7.80243902 8.5225,8.29756098 Z" id="Path"></path>
            </g>
        </g>
    </g>
</svg>