<?xml version="1.0" encoding="UTF-8"?>
<svg width="14px" height="14px" viewBox="0 0 14 14" version="1.1" xmlns="http://www.w3.org/2000/svg" xmlns:xlink="http://www.w3.org/1999/xlink">
    <title>Path@1.5x</title>
    <g id="Sprint-5" stroke="none" stroke-width="1" fill="none" fill-rule="evenodd">
        <g id="Artboard" transform="translate(-29.000000, -47.000000)" fill="#221E20" fill-rule="nonzero">
            <path d="M41.7532895,47 C39.0866133,47.7154327 36.5589355,48.4199321 33.8848699,49.1681481 C33.4930054,49.307098 33.0296051,49.668481 33.0296051,50.1688305 C33.0294511,52.4084452 33.0296051,54.5988183 33.0296051,56.8400329 C31.3190806,56.5064666 29.4375,58.0074819 29.4375,59.5084972 C29.4375,60.5091797 30.2927648,61.0095292 31.1485103,61 C32.7267821,60.9941959 34.3980261,59.8420636 34.3980261,58.3410316 C34.3879339,56.8887162 34.3980261,53.8225023 34.3980261,52.3369619 L41.069079,50.5023802 L41.069079,54.6718849 C39.3585528,54.5051183 37.305923,55.8393505 37.305923,57.3403658 C37.305923,58.3410316 38.1337459,59.0049143 39.0164475,59.0081643 C40.7269738,59.0081643 42.4375,57.8406987 42.4375,56.1729002 C42.4274079,53.1387829 42.4371579,50.0101807 42.4375,47.5003329 C42.4375,47.1667832 42.0953948,47 41.7532895,47 Z" id="Path"></path>
        </g>
    </g>
</svg>