<?xml version="1.0" encoding="UTF-8"?>
<svg width="1366px" height="100px" viewBox="0 0 1366 100" version="1.1" xmlns="http://www.w3.org/2000/svg" xmlns:xlink="http://www.w3.org/1999/xlink">
    <title>209D9718-E936-438C-83CA-BFD6B9237BF5</title>
    <defs>
        <rect id="path-1" x="0" y="0" width="1366" height="100"></rect>
        <filter id="filter-3">
            <feColorMatrix in="SourceGraphic" type="matrix" values="0 0 0 0 1.000000 0 0 0 0 0.796078 0 0 0 0 0.031373 0 0 0 1.000000 0"></feColorMatrix>
        </filter>
        <polygon id="path-4" points="0 532.798 685.086 532.798 685.086 0 0 0"></polygon>
        <filter id="filter-6">
            <feColorMatrix in="SourceGraphic" type="matrix" values="0 0 0 0 1.000000 0 0 0 0 0.796078 0 0 0 0 0.031373 0 0 0 1.000000 0"></feColorMatrix>
        </filter>
        <polygon id="path-7" points="0 532.798 685.086 532.798 685.086 0 0 0"></polygon>
        <filter id="filter-9">
            <feColorMatrix in="SourceGraphic" type="matrix" values="0 0 0 0 1.000000 0 0 0 0 0.796078 0 0 0 0 0.031373 0 0 0 1.000000 0"></feColorMatrix>
        </filter>
        <polygon id="path-10" points="0 532.798 685.086 532.798 685.086 0 0 0"></polygon>
    </defs>
    <g id="Page-1" stroke="none" stroke-width="1" fill="none" fill-rule="evenodd">
        <g id="updated_1" transform="translate(0.000000, -780.000000)">
            <g id="Bitmap" style="mix-blend-mode: darken;" transform="translate(0.000000, 780.000000)">
                <mask id="mask-2" fill="white">
                    <use xlink:href="#path-1"></use>
                </mask>
                <use id="Mask" fill="#003187" xlink:href="#path-1"></use>
                <g filter="url(#filter-3)" id="Group-67" opacity="0.5">
                    <g mask="url(#mask-2)">
                        <g transform="translate(-87.000000, -49.000000)" id="Group-66">
                            <polygon id="Fill-41" fill="#1D1D1B" points="468.6855 532.1762 218.3185 99.9502 220.4745 98.7022 470.8405 530.9282"></polygon>
                            <path d="M211.6807,109.3988 L109.1037,211.9758 C80.7787,183.6508 80.7777,137.7248 109.1037,109.3988 C137.4287,137.7238 183.3547,137.7248 211.6807,109.3988" id="Fill-49" fill="#020303"></path>
                            <path d="M110.419,109.3988 C138.168,136.4488 182.616,136.4458 210.364,109.3988 C182.616,82.3508 138.168,82.3508 110.419,109.3988 M160.392,131.5328 C141.582,131.5328 122.77,124.3728 108.449,110.0518 L107.795,109.3988 L108.449,108.7458 C137.089,80.1048 183.694,80.1048 212.334,108.7458 L212.988,109.3988 L212.334,110.0518 C198.014,124.3728 179.204,131.5328 160.392,131.5328" id="Fill-51" fill="#1D1D1C"></path>
                            <polygon id="Fill-53" fill="#1D1D1C" points="268.0161 49.3168 379.8771 246.4228 382.3101 245.0438 270.0201 47.1788"></polygon>
                            <polygon id="Fill-55" fill="#1D1D1C" points="23.1392 300.8861 21.1502 298.9181 268.9432 48.3791 270.9322 50.3461"></polygon>
                            <mask id="mask-5" fill="white">
                                <use xlink:href="#path-4"></use>
                            </mask>
                            <g id="Clip-60"></g>
                            <polygon id="Fill-64" fill="#020303" mask="url(#mask-5)" points="478.3662 128.724 455.9952 111.101 433.6212 128.724 411.2452 111.101 388.8712 128.724 366.5172 111.117 346.4232 128.341 345.4542 127.211 366.4772 109.191 388.8712 126.829 411.2452 109.206 433.6212 126.829 455.9952 109.206 478.3662 126.829 500.7402 109.206 523.1152 126.829 545.4912 109.206 567.8662 126.829 590.2442 109.206 613.0832 127.192 612.1622 128.361 590.2442 111.101 567.8662 128.724 545.4912 111.101 523.1152 128.724 500.7402 111.101"></polygon>
                            <polygon id="Fill-65" fill="#020303" mask="url(#mask-5)" points="478.3662 88.2142 455.9942 70.5922 433.6202 88.2142 411.2462 70.5922 388.8712 88.2142 366.5182 70.6082 346.4232 87.8322 345.4542 86.7022 366.4782 68.6822 388.8712 86.3202 411.2462 68.6972 433.6202 86.3202 455.9942 68.6972 478.3662 86.3202 500.7412 68.6972 523.1152 86.3202 545.4912 68.6972 567.8662 86.3202 590.2452 68.6972 613.0832 86.6832 612.1622 87.8522 590.2452 70.5922 567.8662 88.2142 545.4912 70.5922 523.1152 88.2142 500.7412 70.5922"></polygon>
                        </g>
                    </g>
                </g>
                <g filter="url(#filter-6)" id="Group-67-Copy" opacity="0.5">
                    <g mask="url(#mask-2)">
                        <g transform="translate(369.000000, -149.000000)" id="Group-66">
                            <path d="M216.7959,530.307 L646.3509,530.307 L431.5729,158.301 L216.7959,530.307 Z M650.6659,532.798 L212.4799,532.798 L431.5729,153.319 L650.6659,532.798 Z" id="Fill-37" fill="#020303"></path>
                            <polygon id="Fill-41" fill="#1D1D1B" points="468.6855 532.1762 218.3185 99.9502 220.4745 98.7022 470.8405 530.9282"></polygon>
                            <path d="M211.6807,109.3988 L109.1037,211.9758 C80.7787,183.6508 80.7777,137.7248 109.1037,109.3988 C137.4287,137.7238 183.3547,137.7248 211.6807,109.3988" id="Fill-49" fill="#020303"></path>
                            <polygon id="Fill-53" fill="#1D1D1C" points="268.0161 49.3168 379.8771 246.4228 382.3101 245.0438 270.0201 47.1788"></polygon>
                            <polygon id="Fill-55" fill="#1D1D1C" points="23.1392 300.8861 21.1502 298.9181 268.9432 48.3791 270.9322 50.3461"></polygon>
                            <mask id="mask-8" fill="white">
                                <use xlink:href="#path-7"></use>
                            </mask>
                            <g id="Clip-60"></g>
                            <polygon id="Fill-59" fill="#020303" mask="url(#mask-8)" points="569.752 247.109 593.985 247.109 593.985 222.876 569.752 222.876"></polygon>
                            <polygon id="Fill-62" fill="#020303" mask="url(#mask-8)" points="650.51 183.619 685.087 183.619 685.087 149.043 650.51 149.043"></polygon>
                        </g>
                    </g>
                </g>
                <g filter="url(#filter-9)" id="Group-67-Copy-2" opacity="0.5">
                    <g mask="url(#mask-2)">
                        <g transform="translate(1114.000000, -109.500000) scale(-1, 1) translate(-1114.000000, 109.500000) translate(771.000000, -376.000000)" id="Group-66">
                            <path d="M194.2671,386.9037 C192.2501,386.9037 190.6151,385.2687 190.6151,383.2517 C190.6151,381.2337 192.2501,379.5987 194.2671,379.5987 C196.2841,379.5987 197.9191,381.2337 197.9191,383.2517 C197.9191,385.2687 196.2841,386.9037 194.2671,386.9037" id="Fill-1" fill="#020303"></path>
                            <path d="M194.2671,414.4076 C192.2501,414.4076 190.6151,412.7726 190.6151,410.7556 C190.6151,408.7376 192.2501,407.1026 194.2671,407.1026 C196.2841,407.1026 197.9191,408.7376 197.9191,410.7556 C197.9191,412.7726 196.2841,414.4076 194.2671,414.4076" id="Fill-3" fill="#020303"></path>
                            <path d="M194.2671,441.9115 C192.2501,441.9115 190.6151,440.2765 190.6151,438.2595 C190.6151,436.2415 192.2501,434.6065 194.2671,434.6065 C196.2841,434.6065 197.9191,436.2415 197.9191,438.2595 C197.9191,440.2765 196.2841,441.9115 194.2671,441.9115" id="Fill-5" fill="#020303"></path>
                            <path d="M194.2671,469.4154 C192.2501,469.4154 190.6151,467.7804 190.6151,465.7634 C190.6151,463.7454 192.2501,462.1104 194.2671,462.1104 C196.2841,462.1104 197.9191,463.7454 197.9191,465.7634 C197.9191,467.7804 196.2841,469.4154 194.2671,469.4154" id="Fill-7" fill="#020303"></path>
                            <path d="M153.0889,386.9037 C151.0719,386.9037 149.4369,385.2687 149.4369,383.2517 C149.4369,381.2337 151.0719,379.5987 153.0889,379.5987 C155.1059,379.5987 156.7409,381.2337 156.7409,383.2517 C156.7409,385.2687 155.1059,386.9037 153.0889,386.9037" id="Fill-13" fill="#020303"></path>
                            <path d="M153.0889,414.4076 C151.0719,414.4076 149.4369,412.7726 149.4369,410.7556 C149.4369,408.7376 151.0719,407.1026 153.0889,407.1026 C155.1059,407.1026 156.7409,408.7376 156.7409,410.7556 C156.7409,412.7726 155.1059,414.4076 153.0889,414.4076" id="Fill-15" fill="#020303"></path>
                            <path d="M153.0889,441.9115 C151.0719,441.9115 149.4369,440.2765 149.4369,438.2595 C149.4369,436.2415 151.0719,434.6065 153.0889,434.6065 C155.1059,434.6065 156.7409,436.2415 156.7409,438.2595 C156.7409,440.2765 155.1059,441.9115 153.0889,441.9115" id="Fill-17" fill="#020303"></path>
                            <path d="M153.0889,469.4154 C151.0719,469.4154 149.4369,467.7804 149.4369,465.7634 C149.4369,463.7454 151.0719,462.1104 153.0889,462.1104 C155.1059,462.1104 156.7409,463.7454 156.7409,465.7634 C156.7409,467.7804 155.1059,469.4154 153.0889,469.4154" id="Fill-19" fill="#020303"></path>
                            <path d="M111.9111,386.9037 C109.8931,386.9037 108.2581,385.2687 108.2581,383.2517 C108.2581,381.2337 109.8931,379.5987 111.9111,379.5987 C113.9281,379.5987 115.5631,381.2337 115.5631,383.2517 C115.5631,385.2687 113.9281,386.9037 111.9111,386.9037" id="Fill-25" fill="#020303"></path>
                            <path d="M111.9111,414.4076 C109.8931,414.4076 108.2581,412.7726 108.2581,410.7556 C108.2581,408.7376 109.8931,407.1026 111.9111,407.1026 C113.9281,407.1026 115.5631,408.7376 115.5631,410.7556 C115.5631,412.7726 113.9281,414.4076 111.9111,414.4076" id="Fill-27" fill="#020303"></path>
                            <path d="M111.9111,441.9115 C109.8931,441.9115 108.2581,440.2765 108.2581,438.2595 C108.2581,436.2415 109.8931,434.6065 111.9111,434.6065 C113.9281,434.6065 115.5631,436.2415 115.5631,438.2595 C115.5631,440.2765 113.9281,441.9115 111.9111,441.9115" id="Fill-29" fill="#020303"></path>
                            <path d="M111.9111,469.4154 C109.8931,469.4154 108.2581,467.7804 108.2581,465.7634 C108.2581,463.7454 109.8931,462.1104 111.9111,462.1104 C113.9281,462.1104 115.5631,463.7454 115.5631,465.7634 C115.5631,467.7804 113.9281,469.4154 111.9111,469.4154" id="Fill-31" fill="#020303"></path>
                            <path d="M216.7959,530.307 L646.3509,530.307 L431.5729,158.301 L216.7959,530.307 Z M650.6659,532.798 L212.4799,532.798 L431.5729,153.319 L650.6659,532.798 Z" id="Fill-37" fill="#020303"></path>
                            <polygon id="Fill-39" fill="#020303" points="614.6465 473.0092 580.8465 531.5522 648.4465 531.5522"></polygon>
                            <polygon id="Fill-41" fill="#1D1D1B" points="468.6855 532.1762 218.3185 99.9502 220.4745 98.7022 470.8405 530.9282"></polygon>
                            <polygon id="Fill-43" fill="#020303" points="409.6094 427.8021 407.8474 426.0401 521.1984 312.6911 522.9604 314.4511"></polygon>
                            <polygon id="Fill-45" fill="#020303" points="428.2939 457.6967 426.5319 455.9347 539.2599 343.2087 541.0219 344.9687"></polygon>
                            <polygon id="Fill-47" fill="#020303" points="444.4863 488.8373 442.7243 487.0753 556.0753 373.7253 557.8373 375.4863"></polygon>
                            <mask id="mask-11" fill="white">
                                <use xlink:href="#path-10"></use>
                            </mask>
                            <g id="Clip-60"></g>
                        </g>
                    </g>
                </g>
            </g>
        </g>
    </g>
</svg>