<?xml version="1.0" encoding="UTF-8"?>
<svg width="246px" height="177px" viewBox="0 0 246 177" version="1.1" xmlns="http://www.w3.org/2000/svg" xmlns:xlink="http://www.w3.org/1999/xlink">
    <title>6C54E13C-D50B-4396-AC68-5A370FA4D6D1</title>
    <g id="Page-1" stroke="none" stroke-width="1" fill="none" fill-rule="evenodd" opacity="0.3">
        <g id="Name-Tunes_7" transform="translate(-597.000000, -230.000000)">
            <g id="Group-35" transform="translate(597.000000, 230.000000)">
                <g id="Group-34" opacity="0.6">
                    <path d="M191.238712,140.751074 C183.252857,132.765219 176.663536,124.545592 171.940325,117.04456 C156.724817,123.932703 138.193812,121.130488 125.685993,108.62267 C109.806776,92.7434521 109.569954,67.1606638 124.949103,50.9775427 C122.510759,52.5753236 120.214712,54.4292372 118.105682,56.5382672 C101.499738,73.1442107 101.499738,100.164189 118.105682,116.770132 C126.149471,124.814938 136.845049,129.244409 148.221614,129.244409 C154.008996,129.244409 159.618508,128.091812 164.794016,125.906552 C169.683917,133.489912 176.175664,141.416816 183.658401,148.899553 C200.296869,165.538021 218.588004,176.718421 229.17381,176.718421 L229.175843,176.718421 C232.04514,176.718421 234.305613,175.913433 235.89323,174.325816 C237.421896,172.79715 238.164884,170.620021 238.215704,167.954004 C228.922759,169.958345 209.465813,158.978176 191.238712,140.751074" id="Fill-93" fill="#DCDBDC"></path>
                    <g id="Group-33">
                        <path d="M210.595034,155.537661 L31.2227921,155.537661 C23.7735963,155.537661 17.7341475,149.499229 17.7341475,142.050033 L17.7341475,28.6116604 C17.7341475,21.1624647 23.7735963,15.1230158 31.2227921,15.1230158 L210.595034,15.1230158 C218.04423,15.1230158 224.083678,21.1624647 224.083678,28.6116604 L224.083678,142.050033 C224.083678,149.499229 218.04423,155.537661 210.595034,155.537661" id="Fill-94" fill="#DCDBDC"></path>
                        <path d="M45.7959355,1.52460002 L60.4473417,22.3343739 L207.873115,22.3343739 L207.873115,10.943579 C207.873115,5.74164368 203.656071,1.52460002 198.454136,1.52460002 L45.7959355,1.52460002" id="Fill-95" fill="#424A60"></path>
                        <path d="M11.1631214,1.52460002 L45.7959355,1.52460002 L60.4473417,22.3343739 L207.874131,22.3343739 L207.874131,132.51925 C207.874131,137.721186 203.656071,141.938229 198.454136,141.938229 L11.1631214,141.938229 L11.1631214,1.52460002" id="Fill-96" fill="#DDDCDE"></path>
                        <path d="M194.385486,141.938229 L194.385486,140.413629 L15.0122282,140.413629 C11.7038462,140.413629 8.72274493,139.077063 6.55273089,136.910098 C4.38576606,134.740084 3.05021644,131.758983 3.04920004,128.450601 L3.04920004,15.0122282 C3.05021644,11.7038462 4.38576606,8.72274493 6.55273089,6.55273089 C8.72274493,4.38576606 11.7038462,3.05021644 15.0122282,3.04920004 L194.385486,3.04920004 C197.693868,3.05021644 200.67497,4.38576606 202.844984,6.55273089 C205.011949,8.72274493 206.348515,11.7038462 206.348515,15.0122282 L206.348515,128.450601 C206.348515,131.758983 205.011949,134.740084 202.844984,136.910098 C200.67497,139.077063 197.693868,140.413629 194.385486,140.413629 L194.385486,143.462829 C202.677278,143.462829 209.397715,136.742392 209.397715,128.450601 L209.397715,15.0122282 C209.397715,6.7204369 202.677278,5.19980866e-13 194.385486,5.19980866e-13 L15.0122282,5.19980866e-13 C6.7204369,5.19980866e-13 1.01107391e-13,6.7204369 1.01107391e-13,15.0122282 L1.01107391e-13,128.450601 C1.01107391e-13,136.742392 6.7204369,143.462829 15.0122282,143.462829 L194.385486,143.462829 L194.385486,141.938229" id="Fill-97" fill="#424862"></path>
                        <path d="M153.172499,93.665327 L56.225216,93.665327 C48.0787699,93.665327 41.4742026,87.0607597 41.4742026,78.9143135 L41.4742026,77.5421735 C41.4742026,69.394711 48.0787699,62.7911601 56.225216,62.7911601 L153.172499,62.7911601 C161.318945,62.7911601 167.923512,69.394711 167.923512,77.5421735 L167.923512,78.9143135 C167.923512,87.0607597 161.318945,93.665327 153.172499,93.665327" id="Fill-102" fill="#989799"></path>
                        <text id="A" font-family="LucidaGrande, Lucida Grande" font-size="27.244704" font-weight="normal" fill="#424862">
                            <tspan x="64.9632069" y="81.0398012">A</tspan>
                        </text>
                        <polygon id="Fill-103" fill="#424862" points="88.8028693 74.9950751 105.938357 74.9950751 105.938357 71.945875 88.8028693 71.945875"></polygon>
                        <polygon id="Fill-104" fill="#424862" points="88.8028693 86.4885265 105.938357 86.4885265 105.938357 83.4393264 88.8028693 83.4393264"></polygon>
                        <polygon id="Fill-105" fill="#424862" points="64.9621905 97.9819778 108.613522 97.9819778 108.613522 94.9327778 64.9621905 94.9327778"></polygon>
                        <polygon id="Fill-106" fill="#424862" points="64.9621905 109.475429 114.676348 109.475429 114.676348 106.426229 64.9621905 106.426229"></polygon>
                        <polygon id="Fill-107" fill="#424862" points="64.9621905 120.967864 125.685993 120.967864 125.685993 117.918664 64.9621905 117.918664"></polygon>
                        <path d="M154.896313,114.37651 C145.947927,114.37651 136.999542,110.963439 130.172383,104.13628 C127.057117,101.021014 124.652314,97.4625974 122.958992,93.665327 L153.172499,93.665327 C161.318945,93.665327 167.923512,87.0607597 167.923512,78.9143135 L167.923512,77.5421735 C167.923512,69.394711 161.318945,62.7911601 153.172499,62.7911601 L124.124803,62.7911601 C125.69819,59.8812069 127.713711,57.1470908 130.172383,54.6884192 C136.999542,47.8612603 145.947927,44.448189 154.896313,44.448189 C163.844699,44.448189 172.792068,47.8612603 179.619227,54.6884192 C193.273545,68.342737 193.273545,90.4819621 179.619227,104.13628 C172.792068,110.963439 163.844699,114.37651 154.896313,114.37651" id="Fill-117" fill="#989799"></path>
                        <path d="M153.172499,93.665327 L122.958992,93.665327 C118.565095,83.8164108 118.954376,72.3544678 124.124803,62.7911601 L153.172499,62.7911601 C161.318945,62.7911601 167.923512,69.394711 167.923512,77.5421735 L167.923512,78.9143135 C167.923512,87.0607597 161.318945,93.665327 153.172499,93.665327" id="Fill-118" fill="#DDDCDE"></path>
                        <path d="M184.105617,50.2020295 L185.184017,49.1246455 C176.824127,40.7627226 165.853105,36.5771873 154.896313,36.5782035 C143.938504,36.5771873 132.967483,40.7627226 124.607593,49.1246455 C116.246686,57.4845356 112.060134,68.4555574 112.062166,79.4123496 C112.060134,90.3691417 116.246686,101.340163 124.607593,109.700054 C132.967483,118.06096 143.938504,122.247512 154.896313,122.24548 C165.853105,122.247512 176.824127,118.06096 185.184017,109.700054 C193.544924,101.340163 197.731475,90.3691417 197.729443,79.4123496 C197.731475,68.4555574 193.544924,57.4835192 185.184017,49.1246455 L184.105617,50.2020295 L183.028233,51.2804299 C190.799627,59.0528409 194.679226,69.2249722 194.680242,79.4123496 C194.679226,89.5987105 190.799627,99.7718582 183.028233,107.544269 C175.255822,115.315664 165.082674,119.195263 154.896313,119.197295 C144.708936,119.195263 134.536804,115.315664 126.764393,107.544269 C118.992999,99.7718582 115.1134,89.5987105 115.111367,79.4123496 C115.1134,69.2249722 118.992999,59.0528409 126.764393,51.2804299 C134.536804,43.5090354 144.708936,39.6294366 154.896313,39.6274038 C165.082674,39.6294366 175.255822,43.5090354 183.028233,51.2804299 L184.105617,50.2020295" id="Fill-119" fill="#424862"></path>
                        <path d="M185.027491,77.0065307 C184.895359,73.6188695 184.182863,70.248487 182.888986,67.0580074 C182.571869,66.2774122 181.683535,65.9013442 180.90294,66.218461 C180.122345,66.5345614 179.746277,67.4239114 180.063394,68.2034902 C181.22209,71.0626234 181.862422,74.0853971 181.980324,77.1254495 C182.012849,77.9660123 182.72128,78.6215903 183.562859,78.5890655 C184.404438,78.5565407 185.060016,77.8481099 185.027491,77.0065307" id="Fill-120" fill="#424862"></path>
                        <path d="M176.406387,57.2944688 C170.647464,51.5345299 163.085448,48.6489703 155.537661,48.651002 C147.990891,48.6489703 140.428875,51.5345299 134.669953,57.2944688 C134.075359,57.8900792 134.075359,58.8556593 134.669953,59.4502533 C135.265563,60.0458637 136.231143,60.0458637 136.826754,59.4502533 C141.99718,54.2808428 148.760306,51.7022359 155.537661,51.7002031 C162.316033,51.7022359 169.079159,54.2808428 174.249586,59.4502533 C174.845196,60.0458637 175.810776,60.0458637 176.406387,59.4502533 C177.000981,58.8556593 177.000981,57.8900792 176.406387,57.2944688" id="Fill-121" fill="#424862"></path>
                        <path d="M243.633116,161.407372 C243.470492,163.387319 242.831177,165.005428 241.660284,166.177337 C237.15255,170.691169 225.938608,167.390918 212.856524,158.702731 C210.848117,157.368198 208.789907,155.906615 206.702222,154.323063 C201.620222,150.46176 196.382712,145.898124 191.236679,140.75209 C183.250824,132.767252 176.664552,124.547625 171.94439,117.04456 C174.279061,115.987504 176.543601,114.702774 178.687188,113.183256 C180.589889,111.842625 182.399081,110.323107 184.102567,108.61962 C187.730099,105.00022 190.53333,100.868554 192.528524,96.4543286 C200.030572,101.180589 208.250199,107.767877 216.235038,115.752716 C221.3953,120.912979 225.973166,126.165734 229.83447,131.261964 C231.418021,133.341518 232.879604,135.400744 234.207023,137.409151 C240.630671,147.083246 244.101677,155.735859 243.633116,161.407372" id="Fill-122" fill="#FFFFFE"></path>
                        <path d="M243.633116,161.407372 C233.745577,162.840496 214.034532,151.534062 195.551297,133.050828 C188.915222,126.414752 183.208135,119.621134 178.687188,113.183256 C180.589889,111.842625 182.399081,110.323107 184.102567,108.61962 C187.730099,105.00022 190.53333,100.868554 192.528524,96.4543286 C200.030572,101.180589 208.250199,107.767877 216.235038,115.752716 C233.632757,133.150435 244.435056,151.676358 243.633116,161.407372" id="Fill-123" fill="#DDDCDE"></path>
                        <path d="M184.105617,108.62267 L183.028233,107.544269 C179.535882,111.03662 175.558709,113.733129 171.31219,115.656158 L169.718474,116.376785 L170.650513,117.856664 C175.445889,125.472549 182.101276,133.769422 190.160312,141.829474 C198.637088,150.304218 207.377111,157.234033 215.310114,162.073114 C219.277123,164.493162 223.043901,166.390781 226.495596,167.694822 C229.949323,168.99683 233.085933,169.716442 235.848509,169.719491 C237.213534,169.719491 238.492165,169.540604 239.660009,169.142176 C240.825819,168.743747 241.880843,168.116628 242.739701,167.255737 C243.600592,166.396879 244.22771,165.341856 244.625123,164.176045 C245.024568,163.008202 245.203454,161.72957 245.203454,160.365562 C245.199389,157.60197 244.480794,154.465359 243.178786,151.011632 C241.221199,145.836123 237.931112,139.945069 233.54433,133.74198 C229.156531,127.539907 223.668987,121.032914 217.312422,114.676348 C209.253386,106.618329 200.956513,99.9629414 193.340627,95.1665498 L191.860749,94.2355274 L191.140121,95.8282262 C189.217092,100.074745 186.519567,104.051919 183.028233,107.544269 L184.105617,108.62267 L185.184017,109.700054 C188.940632,105.944456 191.848552,101.65728 193.917942,97.085513 L192.528524,96.4573778 L191.71642,97.7471894 C199.101582,102.396203 207.245996,108.920475 215.156637,116.833149 C223.477904,125.152383 230.270505,133.732832 234.954077,141.413767 C237.295862,145.25271 239.10912,148.867028 240.326767,152.089016 C241.545431,155.309988 242.157304,158.143711 242.154254,160.365562 C242.154254,161.463274 242.007893,162.407509 241.74058,163.189121 C241.471234,163.971749 241.090083,164.591753 240.583916,165.099953 C240.0747,165.60612 239.455712,165.98727 238.672068,166.256616 C237.891473,166.523929 236.947237,166.670291 235.848509,166.670291 C233.626658,166.674356 230.793951,166.062484 227.57298,164.842804 C222.736948,163.017349 217.028846,159.848214 210.986348,155.571203 C204.941817,151.295208 198.556792,145.91337 192.317112,139.672674 C184.404438,131.762032 177.880167,123.618635 173.231153,116.232456 L171.940325,117.04456 L172.569477,118.433979 C177.140227,116.364588 181.428419,113.456668 185.184017,109.700054 L184.105617,108.62267" id="Fill-124" fill="#424862"></path>
                        <path d="M229.83447,131.261964 C226.917402,135.648746 223.474855,139.871888 219.52919,143.818569 C215.52559,147.822169 211.217071,151.341962 206.702222,154.323063 C208.789907,155.906615 210.848117,157.368198 212.856524,158.702731 C216.952616,155.814122 220.869822,152.513871 224.547157,148.836536 C228.166557,145.217136 231.389562,141.384291 234.207023,137.409151 C232.879604,135.400744 231.418021,133.341518 229.83447,131.261964" id="Fill-125" fill="#424862"></path>
                    </g>
                </g>
                <polyline id="Fill-98" fill-opacity="0.6" fill="#424862" points="44.5488126 2.40175323 59.6555661 23.8589739 207.873115 23.8589739 207.873115 20.8097739 61.2381009 20.8097739 47.0420419 0.646430409 44.5488126 2.40175323"></polyline>
                <path d="M161.898293,11.929487 C161.898293,10.1660329 160.468218,8.73595813 158.703748,8.73595813 C156.940293,8.73595813 155.510219,10.1660329 155.510219,11.929487 C155.510219,13.6939574 156.940293,15.1230158 158.703748,15.1230158 C160.468218,15.1230158 161.898293,13.6939574 161.898293,11.929487" id="Fill-99" fill="#DCDBDC"></path>
                <path d="M178.632303,11.929487 C178.632303,10.1660329 177.203244,8.73595813 175.438774,8.73595813 C173.67532,8.73595813 172.245245,10.1660329 172.245245,11.929487 C172.245245,13.6939574 173.67532,15.1230158 175.438774,15.1230158 C177.203244,15.1230158 178.632303,13.6939574 178.632303,11.929487" id="Fill-100" fill="#DCDBDC"></path>
                <path d="M195.367329,11.929487 C195.367329,10.1660329 193.937254,8.73595813 192.1738,8.73595813 C190.40933,8.73595813 188.980271,10.1660329 188.980271,11.929487 C188.980271,13.6939574 190.40933,15.1230158 192.1738,15.1230158 C193.937254,15.1230158 195.367329,13.6939574 195.367329,11.929487" id="Fill-101" fill="#DCDBDC"></path>
            </g>
        </g>
    </g>
</svg>