<?xml version="1.0" encoding="UTF-8"?>
<svg width="20px" height="20px" viewBox="0 0 16 11" version="1.1" xmlns="http://www.w3.org/2000/svg" xmlns:xlink="http://www.w3.org/1999/xlink">
    <!-- Generator: sketchtool 63.1 (101010) - https://sketch.com -->
    <title>8D9624E0-2C1A-4275-A066-B77819C80C57@6d</title>
    <desc>Created with sketchtool.</desc>
    <g id="Page-1" stroke="none" stroke-width="1" fill="none" fill-rule="evenodd">
        <g id="02_Home_Page-05" transform="translate(-1262.000000, -655.000000)" fill="#898989" fill-rule="nonzero">
            <g id="Line-2-Copy-2-+-view-+-placeholder_Image-+-Chris-Blair-Mask" transform="translate(130.000000, 620.000000)">
                <path d="M1140,35 C1145.30107,35 1148,40.3333333 1148,40.3333333 C1148,40.3333333 1145.30107,45.6666667 1140,45.6666667 C1134.69947,45.6666667 1132,40.3333333 1132,40.3333333 C1132,40.3333333 1134.69947,35 1140,35 Z M1140,35.8885333 C1135.58293,35.8885333 1133.33333,40.3333333 1133.33333,40.3333333 C1133.33333,40.3333333 1135.58293,44.7770667 1140,44.7770667 C1144.4176,44.7770667 1146.66667,40.3333333 1146.66667,40.3333333 C1146.66667,40.3333333 1144.4176,35.8885333 1140,35.8885333 Z M1140.13333,36.6 C1142.26533,36.6 1144,38.3346667 1144,40.4666667 C1144,42.5986667 1142.2656,44.3333333 1140.13333,44.3333333 C1138.00133,44.3333333 1136.26667,42.5986667 1136.26667,40.4666667 C1136.26667,38.3346667 1138.00133,36.6 1140.13333,36.6 Z M1140.13333,37.4 C1138.4424,37.4 1137.06667,38.7757333 1137.06667,40.4666667 C1137.06667,42.1576 1138.4424,43.5333333 1140.13333,43.5333333 C1141.82427,43.5333333 1143.2,42.1576 1143.2,40.4666667 C1143.2,38.7757333 1141.82427,37.4 1140.13333,37.4 Z M1140,38.2 C1141.17628,38.2 1142.13333,39.1570575 1142.13333,40.3333333 C1142.13333,41.5096092 1141.17642,42.4666667 1140,42.4666667 C1138.82372,42.4666667 1137.86667,41.5096092 1137.86667,40.3333333 C1137.86667,39.1570575 1138.82372,38.2 1140,38.2 Z" id="view"></path>
            </g>
        </g>
    </g>
</svg>