<?xml version="1.0" encoding="UTF-8"?>
<svg width="16px" height="20px" viewBox="0 0 16 20" version="1.1" xmlns="http://www.w3.org/2000/svg" xmlns:xlink="http://www.w3.org/1999/xlink">
    <!-- Generator: sketchtool 64 (101010) - https://sketch.com -->
    <title>6C75CD89-9464-4DF7-BF43-D69A7E6F9390@1.5x</title>
    <desc>Created with sketchtool.</desc>
    <g id="Sprint-1" stroke="none" stroke-width="1" fill="none" fill-rule="evenodd">
        <g id="02_Home_Page-2.1" transform="translate(-206.000000, -643.000000)" fill="#000000" fill-rule="nonzero">
            <g id="Group" transform="translate(196.500000, 635.000000)">
                <path d="M20,8 L20,12.5 C20,12.7761424 20.2238576,13 20.5,13 L25,13 L25,13 L20,8 Z" id="Path"></path>
                <path d="M18.75,13 L18.75,8 L11.25,8 C10.56125,8 10,8.56125 10,9.25 L10,26.75 C10,27.44 10.56125,28 11.25,28 L23.75,28 C24.44,28 25,27.44 25,26.75 L25,14.25 L20,14.25 C19.31125,14.25 18.75,13.68875 18.75,13 Z M13.125,11.75 L16.875,11.75 C17.22,11.75 17.5,12.03 17.5,12.375 C17.5,12.72 17.22,13 16.875,13 L13.125,13 C12.78,13 12.5,12.72 12.5,12.375 C12.5,12.03 12.78,11.75 13.125,11.75 Z M12.5,14.875 C12.5,14.53 12.78,14.25 13.125,14.25 L16.875,14.25 C17.22,14.25 17.5,14.53 17.5,14.875 C17.5,15.22 17.22,15.5 16.875,15.5 L13.125,15.5 C12.78,15.5 12.5,15.22 12.5,14.875 Z M21.21875,20.815 C21.2925,21.0375 21.23625,21.28125 21.0725,21.45 L19.73,22.825 L20.0475,24.775 C20.08625,25.01 19.98625,25.24875 19.79125,25.38625 C19.68375,25.4625 19.5575,25.5 19.43125,25.5 C19.3275,25.5 19.22375,25.47375 19.12875,25.42125 L17.5,24.52125 L15.87125,25.4225 C15.66125,25.54 15.405,25.525 15.20875,25.3875 C15.01375,25.25 14.91375,25.01125 14.95125,24.77625 L15.26875,22.82625 L13.9275,21.45 C13.76375,21.28125 13.7075,21.0375 13.7825,20.815 C13.8575,20.5925 14.04875,20.43 14.28,20.395 L16.11,20.11375 L16.93375,18.35875 C17.14,17.91875 17.85875,17.91875 18.065,18.35875 L18.88875,20.11375 L20.72,20.395 C20.95125,20.43 21.14375,20.5925 21.21875,20.815 Z" id="Shape"></path>
            </g>
        </g>
    </g>
</svg>